# MagicaVoxel @ Ephtracy

# group
o 

# material
mtllib Fly-3.mtl
usemtl palette

# normals
vn -1 0 0
vn 1 0 0
vn 0 0 1
vn 0 0 -1
vn 0 -1 0
vn 0 1 0

# texcoords
vt 0.537109 0.5
vt 0.982422 0.5

# verts
v -2 0.3 0.2
v -2 0.3 -0.3
v -2 0.4 0.3
v -2 0.4 0.2
v -2 1 0.3
v -2 1 0.2
v -2 1.1 0.3
v -2 1.1 0.2
v -2 1.7 0.3
v -2 1.7 0.2
v -2 1.8 0.3
v -2 1.8 0.2
v -2 2.4 0.3
v -2 2.4 0.2
v -2 2.5 0.3
v -2 2.5 0.2
v -2 3.1 0.3
v -2 3.1 0.2
v -2 3.2 0.3
v -2 3.2 0.2
v -2 3.8 0.3
v -2 3.8 0.2
v -2 3.8 -0.3
v -1.5 1.1 0.3
v -1.5 1.1 0.2
v -1.5 1.7 0.3
v -1.5 1.7 0.2
v -1.5 2.5 0.3
v -1.5 2.5 0.2
v -1.5 3.1 0.3
v -1.5 3.1 0.2
v -1 0.4 0.3
v -1 0.4 0.2
v -1 1 0.3
v -1 1 0.2
v -1 1.8 0.3
v -1 1.8 0.2
v -1 2.4 0.3
v -1 2.4 0.2
v -1 3.2 0.3
v -1 3.2 0.2
v -1 3.8 0.3
v -1 3.8 0.2
v -0.5 1.1 0.3
v -0.5 1.1 0.2
v -0.5 1.7 0.3
v -0.5 1.7 0.2
v -0.5 2.5 0.3
v -0.5 2.5 0.2
v -0.5 3.1 0.3
v -0.5 3.1 0.2
v 2.38419e-007 0.4 0.3
v 2.38419e-007 0.4 0.2
v 2.38419e-007 1 0.3
v 2.38419e-007 1 0.2
v 2.38419e-007 1.8 0.3
v 2.38419e-007 1.8 0.2
v 2.38419e-007 2.4 0.3
v 2.38419e-007 2.4 0.2
v 2.38419e-007 3.2 0.3
v 2.38419e-007 3.2 0.2
v 2.38419e-007 3.8 0.3
v 2.38419e-007 3.8 0.2
v 0.5 1.1 0.3
v 0.5 1.1 0.2
v 0.5 1.7 0.3
v 0.5 1.7 0.2
v 0.5 2.5 0.3
v 0.5 2.5 0.2
v 0.5 3.1 0.3
v 0.5 3.1 0.2
v 1 0.4 0.3
v 1 0.4 0.2
v 1 1 0.3
v 1 1 0.2
v 1 1.8 0.3
v 1 1.8 0.2
v 1 2.4 0.3
v 1 2.4 0.2
v 1 3.2 0.3
v 1 3.2 0.2
v 1 3.8 0.3
v 1 3.8 0.2
v 1.5 1.1 0.3
v 1.5 1.1 0.2
v 1.5 1.7 0.3
v 1.5 1.7 0.2
v 1.5 2.5 0.3
v 1.5 2.5 0.2
v 1.5 3.1 0.3
v 1.5 3.1 0.2
v -1.6 1.1 0.3
v -1.6 1.1 0.2
v -1.6 1.7 0.3
v -1.6 1.7 0.2
v -1.6 2.5 0.3
v -1.6 2.5 0.2
v -1.6 3.1 0.3
v -1.6 3.1 0.2
v -1.1 0.4 0.3
v -1.1 0.4 0.2
v -1.1 1 0.3
v -1.1 1 0.2
v -1.1 1.8 0.3
v -1.1 1.8 0.2
v -1.1 2.4 0.3
v -1.1 2.4 0.2
v -1.1 3.2 0.3
v -1.1 3.2 0.2
v -1.1 3.8 0.3
v -1.1 3.8 0.2
v -0.6 1.1 0.3
v -0.6 1.1 0.2
v -0.6 1.7 0.3
v -0.6 1.7 0.2
v -0.6 2.5 0.3
v -0.6 2.5 0.2
v -0.6 3.1 0.3
v -0.6 3.1 0.2
v -0.0999999 0.4 0.3
v -0.0999999 0.4 0.2
v -0.0999999 1 0.3
v -0.0999999 1 0.2
v -0.0999999 1.8 0.3
v -0.0999999 1.8 0.2
v -0.0999999 2.4 0.3
v -0.0999999 2.4 0.2
v -0.0999999 3.2 0.3
v -0.0999999 3.2 0.2
v -0.0999999 3.8 0.3
v -0.0999999 3.8 0.2
v 0.4 1.1 0.3
v 0.4 1.1 0.2
v 0.4 1.7 0.3
v 0.4 1.7 0.2
v 0.4 2.5 0.3
v 0.4 2.5 0.2
v 0.4 3.1 0.3
v 0.4 3.1 0.2
v 0.9 0.4 0.3
v 0.9 0.4 0.2
v 0.9 1 0.3
v 0.9 1 0.2
v 0.9 1.8 0.3
v 0.9 1.8 0.2
v 0.9 2.4 0.3
v 0.9 2.4 0.2
v 0.9 3.2 0.3
v 0.9 3.2 0.2
v 0.9 3.8 0.3
v 0.9 3.8 0.2
v 1.4 1.1 0.3
v 1.4 1.1 0.2
v 1.4 1.7 0.3
v 1.4 1.7 0.2
v 1.4 2.5 0.3
v 1.4 2.5 0.2
v 1.4 3.1 0.3
v 1.4 3.1 0.2
v 1.9 0.4 0.3
v 1.9 0.4 0.2
v 1.9 1 0.3
v 1.9 1 0.2
v 1.9 1.8 0.3
v 1.9 1.8 0.2
v 1.9 2.4 0.3
v 1.9 2.4 0.2
v 1.9 3.2 0.3
v 1.9 3.2 0.2
v 1.9 3.8 0.3
v 1.9 3.8 0.2
v 2 0.3 0.2
v 2 0.3 -0.3
v 2 1.1 0.3
v 2 1.1 0.2
v 2 1.7 0.3
v 2 1.7 0.2
v 2 2.5 0.3
v 2 2.5 0.2
v 2 3.1 0.3
v 2 3.1 0.2
v 2 3.8 0.2
v 2 3.8 -0.3
v -2 0.4 0.3
v -2 1 0.3
v -2 1.1 0.3
v -2 1.7 0.3
v -2 1.8 0.3
v -2 2.4 0.3
v -2 2.5 0.3
v -2 3.1 0.3
v -2 3.2 0.3
v -2 3.8 0.3
v -1.6 1.1 0.3
v -1.6 1.7 0.3
v -1.6 2.5 0.3
v -1.6 3.1 0.3
v -1.5 1.1 0.3
v -1.5 1.7 0.3
v -1.5 2.5 0.3
v -1.5 3.1 0.3
v -1.1 0.4 0.3
v -1.1 1 0.3
v -1.1 1.8 0.3
v -1.1 2.4 0.3
v -1.1 3.2 0.3
v -1.1 3.8 0.3
v -1 0.4 0.3
v -1 1 0.3
v -1 1.8 0.3
v -1 2.4 0.3
v -1 3.2 0.3
v -1 3.8 0.3
v -0.6 1.1 0.3
v -0.6 1.7 0.3
v -0.6 2.5 0.3
v -0.6 3.1 0.3
v -0.5 1.1 0.3
v -0.5 1.7 0.3
v -0.5 2.5 0.3
v -0.5 3.1 0.3
v -0.0999999 0.4 0.3
v -0.0999999 1 0.3
v -0.0999999 1.8 0.3
v -0.0999999 2.4 0.3
v -0.0999999 3.2 0.3
v -0.0999999 3.8 0.3
v 2.38419e-007 0.4 0.3
v 2.38419e-007 1 0.3
v 2.38419e-007 1.8 0.3
v 2.38419e-007 2.4 0.3
v 2.38419e-007 3.2 0.3
v 2.38419e-007 3.8 0.3
v 0.4 1.1 0.3
v 0.4 1.7 0.3
v 0.4 2.5 0.3
v 0.4 3.1 0.3
v 0.5 1.1 0.3
v 0.5 1.7 0.3
v 0.5 2.5 0.3
v 0.5 3.1 0.3
v 0.9 0.4 0.3
v 0.9 1 0.3
v 0.9 1.8 0.3
v 0.9 2.4 0.3
v 0.9 3.2 0.3
v 0.9 3.8 0.3
v 1 0.4 0.3
v 1 1 0.3
v 1 1.8 0.3
v 1 2.4 0.3
v 1 3.2 0.3
v 1 3.8 0.3
v 1.4 1.1 0.3
v 1.4 1.7 0.3
v 1.4 2.5 0.3
v 1.4 3.1 0.3
v 1.5 1.1 0.3
v 1.5 1.7 0.3
v 1.5 2.5 0.3
v 1.5 3.1 0.3
v 1.9 0.4 0.3
v 1.9 1 0.3
v 1.9 1.8 0.3
v 1.9 2.4 0.3
v 1.9 3.2 0.3
v 1.9 3.8 0.3
v 2 1.1 0.3
v 2 1.7 0.3
v 2 2.5 0.3
v 2 3.1 0.3
v -2 0.3 0.2
v -2 0.4 0.2
v -2 1 0.2
v -2 1.1 0.2
v -2 1.7 0.2
v -2 1.8 0.2
v -2 2.4 0.2
v -2 2.5 0.2
v -2 3.1 0.2
v -2 3.2 0.2
v -1.6 1.1 0.2
v -1.6 1.7 0.2
v -1.6 2.5 0.2
v -1.6 3.1 0.2
v -1.5 1.1 0.2
v -1.5 1.7 0.2
v -1.5 2.5 0.2
v -1.5 3.1 0.2
v -1.1 0.4 0.2
v -1.1 1 0.2
v -1.1 1.8 0.2
v -1.1 2.4 0.2
v -1.1 3.2 0.2
v -1.1 3.8 0.2
v -1 0.4 0.2
v -1 1 0.2
v -1 1.8 0.2
v -1 2.4 0.2
v -1 3.2 0.2
v -1 3.8 0.2
v -0.6 1.1 0.2
v -0.6 1.7 0.2
v -0.6 2.5 0.2
v -0.6 3.1 0.2
v -0.5 1.1 0.2
v -0.5 1.7 0.2
v -0.5 2.5 0.2
v -0.5 3.1 0.2
v -0.0999999 0.4 0.2
v -0.0999999 1 0.2
v -0.0999999 1.8 0.2
v -0.0999999 2.4 0.2
v -0.0999999 3.2 0.2
v -0.0999999 3.8 0.2
v 2.38419e-007 0.4 0.2
v 2.38419e-007 1 0.2
v 2.38419e-007 1.8 0.2
v 2.38419e-007 2.4 0.2
v 2.38419e-007 3.2 0.2
v 2.38419e-007 3.8 0.2
v 0.4 1.1 0.2
v 0.4 1.7 0.2
v 0.4 2.5 0.2
v 0.4 3.1 0.2
v 0.5 1.1 0.2
v 0.5 1.7 0.2
v 0.5 2.5 0.2
v 0.5 3.1 0.2
v 0.9 0.4 0.2
v 0.9 1 0.2
v 0.9 1.8 0.2
v 0.9 2.4 0.2
v 0.9 3.2 0.2
v 0.9 3.8 0.2
v 1 0.4 0.2
v 1 1 0.2
v 1 1.8 0.2
v 1 2.4 0.2
v 1 3.2 0.2
v 1 3.8 0.2
v 1.4 1.1 0.2
v 1.4 1.7 0.2
v 1.4 2.5 0.2
v 1.4 3.1 0.2
v 1.5 1.1 0.2
v 1.5 1.7 0.2
v 1.5 2.5 0.2
v 1.5 3.1 0.2
v 1.9 0.4 0.2
v 1.9 1 0.2
v 1.9 1.8 0.2
v 1.9 2.4 0.2
v 1.9 3.2 0.2
v 1.9 3.8 0.2
v 2 0.3 0.2
v 2 1.1 0.2
v 2 1.7 0.2
v 2 2.5 0.2
v 2 3.1 0.2
v 2 3.8 0.2
v -2 0.3 -0.3
v -2 3.8 -0.3
v 2 0.3 -0.3
v 2 3.8 -0.3
v -2 0.3 0.2
v 2 0.3 0.2
v -2 0.3 -0.3
v 2 0.3 -0.3
v -2 0.4 0.3
v -1.1 0.4 0.3
v -1 0.4 0.3
v -0.0999999 0.4 0.3
v 2.38419e-007 0.4 0.3
v 0.9 0.4 0.3
v 1 0.4 0.3
v 1.9 0.4 0.3
v -2 0.4 0.2
v -1.1 0.4 0.2
v -1 0.4 0.2
v -0.0999999 0.4 0.2
v 2.38419e-007 0.4 0.2
v 0.9 0.4 0.2
v 1 0.4 0.2
v 1.9 0.4 0.2
v -2 1.1 0.3
v -1.6 1.1 0.3
v -1.5 1.1 0.3
v -0.6 1.1 0.3
v -0.5 1.1 0.3
v 0.4 1.1 0.3
v 0.5 1.1 0.3
v 1.4 1.1 0.3
v 1.5 1.1 0.3
v 2 1.1 0.3
v -2 1.1 0.2
v -1.6 1.1 0.2
v -1.5 1.1 0.2
v -0.6 1.1 0.2
v -0.5 1.1 0.2
v 0.4 1.1 0.2
v 0.5 1.1 0.2
v 1.4 1.1 0.2
v 1.5 1.1 0.2
v 2 1.1 0.2
v -2 1.8 0.3
v -1.1 1.8 0.3
v -1 1.8 0.3
v -0.0999999 1.8 0.3
v 2.38419e-007 1.8 0.3
v 0.9 1.8 0.3
v 1 1.8 0.3
v 1.9 1.8 0.3
v -2 1.8 0.2
v -1.1 1.8 0.2
v -1 1.8 0.2
v -0.0999999 1.8 0.2
v 2.38419e-007 1.8 0.2
v 0.9 1.8 0.2
v 1 1.8 0.2
v 1.9 1.8 0.2
v -2 2.5 0.3
v -1.6 2.5 0.3
v -1.5 2.5 0.3
v -0.6 2.5 0.3
v -0.5 2.5 0.3
v 0.4 2.5 0.3
v 0.5 2.5 0.3
v 1.4 2.5 0.3
v 1.5 2.5 0.3
v 2 2.5 0.3
v -2 2.5 0.2
v -1.6 2.5 0.2
v -1.5 2.5 0.2
v -0.6 2.5 0.2
v -0.5 2.5 0.2
v 0.4 2.5 0.2
v 0.5 2.5 0.2
v 1.4 2.5 0.2
v 1.5 2.5 0.2
v 2 2.5 0.2
v -2 3.2 0.3
v -1.1 3.2 0.3
v -1 3.2 0.3
v -0.0999999 3.2 0.3
v 2.38419e-007 3.2 0.3
v 0.9 3.2 0.3
v 1 3.2 0.3
v 1.9 3.2 0.3
v -2 3.2 0.2
v -1.1 3.2 0.2
v -1 3.2 0.2
v -0.0999999 3.2 0.2
v 2.38419e-007 3.2 0.2
v 0.9 3.2 0.2
v 1 3.2 0.2
v 1.9 3.2 0.2
v -2 1 0.3
v -1.1 1 0.3
v -1 1 0.3
v -0.0999999 1 0.3
v 2.38419e-007 1 0.3
v 0.9 1 0.3
v 1 1 0.3
v 1.9 1 0.3
v -2 1 0.2
v -1.1 1 0.2
v -1 1 0.2
v -0.0999999 1 0.2
v 2.38419e-007 1 0.2
v 0.9 1 0.2
v 1 1 0.2
v 1.9 1 0.2
v -2 1.7 0.3
v -1.6 1.7 0.3
v -1.5 1.7 0.3
v -0.6 1.7 0.3
v -0.5 1.7 0.3
v 0.4 1.7 0.3
v 0.5 1.7 0.3
v 1.4 1.7 0.3
v 1.5 1.7 0.3
v 2 1.7 0.3
v -2 1.7 0.2
v -1.6 1.7 0.2
v -1.5 1.7 0.2
v -0.6 1.7 0.2
v -0.5 1.7 0.2
v 0.4 1.7 0.2
v 0.5 1.7 0.2
v 1.4 1.7 0.2
v 1.5 1.7 0.2
v 2 1.7 0.2
v -2 2.4 0.3
v -1.1 2.4 0.3
v -1 2.4 0.3
v -0.0999999 2.4 0.3
v 2.38419e-007 2.4 0.3
v 0.9 2.4 0.3
v 1 2.4 0.3
v 1.9 2.4 0.3
v -2 2.4 0.2
v -1.1 2.4 0.2
v -1 2.4 0.2
v -0.0999999 2.4 0.2
v 2.38419e-007 2.4 0.2
v 0.9 2.4 0.2
v 1 2.4 0.2
v 1.9 2.4 0.2
v -2 3.1 0.3
v -1.6 3.1 0.3
v -1.5 3.1 0.3
v -0.6 3.1 0.3
v -0.5 3.1 0.3
v 0.4 3.1 0.3
v 0.5 3.1 0.3
v 1.4 3.1 0.3
v 1.5 3.1 0.3
v 2 3.1 0.3
v -2 3.1 0.2
v -1.6 3.1 0.2
v -1.5 3.1 0.2
v -0.6 3.1 0.2
v -0.5 3.1 0.2
v 0.4 3.1 0.2
v 0.5 3.1 0.2
v 1.4 3.1 0.2
v 1.5 3.1 0.2
v 2 3.1 0.2
v -2 3.8 0.3
v -1.1 3.8 0.3
v -1 3.8 0.3
v -0.0999999 3.8 0.3
v 2.38419e-007 3.8 0.3
v 0.9 3.8 0.3
v 1 3.8 0.3
v 1.9 3.8 0.3
v -2 3.8 0.2
v -1.1 3.8 0.2
v -1 3.8 0.2
v -0.0999999 3.8 0.2
v 2.38419e-007 3.8 0.2
v 0.9 3.8 0.2
v 1 3.8 0.2
v 1.9 3.8 0.2
v 2 3.8 0.2
v -2 3.8 -0.3
v 2 3.8 -0.3

# faces
f 4/2/1 2/2/1 1/2/1
f 5/1/1 4/1/1 3/1/1
f 6/2/1 2/2/1 4/2/1
f 6/1/1 4/1/1 5/1/1
f 8/2/1 2/2/1 6/2/1
f 9/1/1 8/1/1 7/1/1
f 10/2/1 2/2/1 8/2/1
f 10/1/1 8/1/1 9/1/1
f 12/2/1 2/2/1 10/2/1
f 13/1/1 12/1/1 11/1/1
f 14/2/1 2/2/1 12/2/1
f 14/1/1 12/1/1 13/1/1
f 16/2/1 2/2/1 14/2/1
f 17/1/1 16/1/1 15/1/1
f 18/2/1 2/2/1 16/2/1
f 18/1/1 16/1/1 17/1/1
f 20/2/1 2/2/1 18/2/1
f 21/1/1 20/1/1 19/1/1
f 22/2/1 2/2/1 20/2/1
f 22/1/1 20/1/1 21/1/1
f 23/2/1 2/2/1 22/2/1
f 26/1/1 25/1/1 24/1/1
f 27/1/1 25/1/1 26/1/1
f 30/1/1 29/1/1 28/1/1
f 31/1/1 29/1/1 30/1/1
f 34/1/1 33/1/1 32/1/1
f 35/1/1 33/1/1 34/1/1
f 38/1/1 37/1/1 36/1/1
f 39/1/1 37/1/1 38/1/1
f 42/1/1 41/1/1 40/1/1
f 43/1/1 41/1/1 42/1/1
f 46/1/1 45/1/1 44/1/1
f 47/1/1 45/1/1 46/1/1
f 50/1/1 49/1/1 48/1/1
f 51/1/1 49/1/1 50/1/1
f 54/1/1 53/1/1 52/1/1
f 55/1/1 53/1/1 54/1/1
f 58/1/1 57/1/1 56/1/1
f 59/1/1 57/1/1 58/1/1
f 62/1/1 61/1/1 60/1/1
f 63/1/1 61/1/1 62/1/1
f 66/1/1 65/1/1 64/1/1
f 67/1/1 65/1/1 66/1/1
f 70/1/1 69/1/1 68/1/1
f 71/1/1 69/1/1 70/1/1
f 74/1/1 73/1/1 72/1/1
f 75/1/1 73/1/1 74/1/1
f 78/1/1 77/1/1 76/1/1
f 79/1/1 77/1/1 78/1/1
f 82/1/1 81/1/1 80/1/1
f 83/1/1 81/1/1 82/1/1
f 86/1/1 85/1/1 84/1/1
f 87/1/1 85/1/1 86/1/1
f 90/1/1 89/1/1 88/1/1
f 91/1/1 89/1/1 90/1/1
f 92/1/2 93/1/2 94/1/2
f 94/1/2 93/1/2 95/1/2
f 96/1/2 97/1/2 98/1/2
f 98/1/2 97/1/2 99/1/2
f 100/1/2 101/1/2 102/1/2
f 102/1/2 101/1/2 103/1/2
f 104/1/2 105/1/2 106/1/2
f 106/1/2 105/1/2 107/1/2
f 108/1/2 109/1/2 110/1/2
f 110/1/2 109/1/2 111/1/2
f 112/1/2 113/1/2 114/1/2
f 114/1/2 113/1/2 115/1/2
f 116/1/2 117/1/2 118/1/2
f 118/1/2 117/1/2 119/1/2
f 120/1/2 121/1/2 122/1/2
f 122/1/2 121/1/2 123/1/2
f 124/1/2 125/1/2 126/1/2
f 126/1/2 125/1/2 127/1/2
f 128/1/2 129/1/2 130/1/2
f 130/1/2 129/1/2 131/1/2
f 132/1/2 133/1/2 134/1/2
f 134/1/2 133/1/2 135/1/2
f 136/1/2 137/1/2 138/1/2
f 138/1/2 137/1/2 139/1/2
f 140/1/2 141/1/2 142/1/2
f 142/1/2 141/1/2 143/1/2
f 144/1/2 145/1/2 146/1/2
f 146/1/2 145/1/2 147/1/2
f 148/1/2 149/1/2 150/1/2
f 150/1/2 149/1/2 151/1/2
f 152/1/2 153/1/2 154/1/2
f 154/1/2 153/1/2 155/1/2
f 156/1/2 157/1/2 158/1/2
f 158/1/2 157/1/2 159/1/2
f 160/1/2 161/1/2 162/1/2
f 162/1/2 161/1/2 163/1/2
f 164/1/2 165/1/2 166/1/2
f 166/1/2 165/1/2 167/1/2
f 168/1/2 169/1/2 170/1/2
f 170/1/2 169/1/2 171/1/2
f 172/2/2 173/2/2 175/2/2
f 174/1/2 175/1/2 176/1/2
f 175/2/2 173/2/2 177/2/2
f 176/1/2 175/1/2 177/1/2
f 177/2/2 173/2/2 179/2/2
f 178/1/2 179/1/2 180/1/2
f 179/2/2 173/2/2 181/2/2
f 180/1/2 179/1/2 181/1/2
f 181/2/2 173/2/2 182/2/2
f 182/2/2 173/2/2 183/2/2
f 194/1/3 187/1/3 186/1/3
f 195/1/3 187/1/3 194/1/3
f 196/1/3 191/1/3 190/1/3
f 197/1/3 191/1/3 196/1/3
f 202/1/3 185/1/3 184/1/3
f 203/1/3 185/1/3 202/1/3
f 204/1/3 189/1/3 188/1/3
f 205/1/3 189/1/3 204/1/3
f 206/1/3 193/1/3 192/1/3
f 207/1/3 193/1/3 206/1/3
f 214/1/3 199/1/3 198/1/3
f 215/1/3 199/1/3 214/1/3
f 216/1/3 201/1/3 200/1/3
f 217/1/3 201/1/3 216/1/3
f 222/1/3 209/1/3 208/1/3
f 223/1/3 209/1/3 222/1/3
f 224/1/3 211/1/3 210/1/3
f 225/1/3 211/1/3 224/1/3
f 226/1/3 213/1/3 212/1/3
f 227/1/3 213/1/3 226/1/3
f 234/1/3 219/1/3 218/1/3
f 235/1/3 219/1/3 234/1/3
f 236/1/3 221/1/3 220/1/3
f 237/1/3 221/1/3 236/1/3
f 242/1/3 229/1/3 228/1/3
f 243/1/3 229/1/3 242/1/3
f 244/1/3 231/1/3 230/1/3
f 245/1/3 231/1/3 244/1/3
f 246/1/3 233/1/3 232/1/3
f 247/1/3 233/1/3 246/1/3
f 254/1/3 239/1/3 238/1/3
f 255/1/3 239/1/3 254/1/3
f 256/1/3 241/1/3 240/1/3
f 257/1/3 241/1/3 256/1/3
f 262/1/3 249/1/3 248/1/3
f 263/1/3 249/1/3 262/1/3
f 264/1/3 251/1/3 250/1/3
f 265/1/3 251/1/3 264/1/3
f 266/1/3 253/1/3 252/1/3
f 267/1/3 253/1/3 266/1/3
f 268/1/3 259/1/3 258/1/3
f 269/1/3 259/1/3 268/1/3
f 270/1/3 261/1/3 260/1/3
f 271/1/3 261/1/3 270/1/3
f 282/2/3 275/2/3 274/2/3
f 283/2/3 277/2/3 276/2/3
f 284/2/3 279/2/3 278/2/3
f 285/2/3 281/2/3 280/2/3
f 286/2/3 282/2/3 274/2/3
f 286/2/3 283/2/3 282/2/3
f 287/2/3 277/2/3 283/2/3
f 287/2/3 283/2/3 286/2/3
f 288/2/3 284/2/3 278/2/3
f 288/2/3 285/2/3 284/2/3
f 289/2/3 281/2/3 285/2/3
f 289/2/3 285/2/3 288/2/3
f 290/2/3 273/2/3 272/2/3
f 291/2/3 286/2/3 274/2/3
f 292/2/3 277/2/3 287/2/3
f 293/2/3 288/2/3 278/2/3
f 294/2/3 281/2/3 289/2/3
f 296/2/3 291/2/3 290/2/3
f 296/2/3 290/2/3 272/2/3
f 297/2/3 286/2/3 291/2/3
f 297/2/3 291/2/3 296/2/3
f 298/2/3 293/2/3 292/2/3
f 298/2/3 292/2/3 287/2/3
f 299/2/3 288/2/3 293/2/3
f 299/2/3 293/2/3 298/2/3
f 300/2/3 295/2/3 294/2/3
f 300/2/3 294/2/3 289/2/3
f 301/2/3 295/2/3 300/2/3
f 302/2/3 286/2/3 297/2/3
f 303/2/3 298/2/3 287/2/3
f 304/2/3 288/2/3 299/2/3
f 305/2/3 300/2/3 289/2/3
f 306/2/3 303/2/3 302/2/3
f 306/2/3 302/2/3 297/2/3
f 307/2/3 298/2/3 303/2/3
f 307/2/3 303/2/3 306/2/3
f 308/2/3 305/2/3 304/2/3
f 308/2/3 304/2/3 299/2/3
f 309/2/3 300/2/3 305/2/3
f 309/2/3 305/2/3 308/2/3
f 310/2/3 296/2/3 272/2/3
f 311/2/3 306/2/3 297/2/3
f 312/2/3 298/2/3 307/2/3
f 313/2/3 308/2/3 299/2/3
f 314/2/3 300/2/3 309/2/3
f 316/2/3 311/2/3 310/2/3
f 316/2/3 310/2/3 272/2/3
f 317/2/3 306/2/3 311/2/3
f 317/2/3 311/2/3 316/2/3
f 318/2/3 313/2/3 312/2/3
f 318/2/3 312/2/3 307/2/3
f 319/2/3 308/2/3 313/2/3
f 319/2/3 313/2/3 318/2/3
f 320/2/3 315/2/3 314/2/3
f 320/2/3 314/2/3 309/2/3
f 321/2/3 315/2/3 320/2/3
f 322/2/3 306/2/3 317/2/3
f 323/2/3 318/2/3 307/2/3
f 324/2/3 308/2/3 319/2/3
f 325/2/3 320/2/3 309/2/3
f 326/2/3 323/2/3 322/2/3
f 326/2/3 322/2/3 317/2/3
f 327/2/3 318/2/3 323/2/3
f 327/2/3 323/2/3 326/2/3
f 328/2/3 325/2/3 324/2/3
f 328/2/3 324/2/3 319/2/3
f 329/2/3 320/2/3 325/2/3
f 329/2/3 325/2/3 328/2/3
f 330/2/3 316/2/3 272/2/3
f 331/2/3 326/2/3 317/2/3
f 332/2/3 318/2/3 327/2/3
f 333/2/3 328/2/3 319/2/3
f 334/2/3 320/2/3 329/2/3
f 336/2/3 331/2/3 330/2/3
f 336/2/3 330/2/3 272/2/3
f 337/2/3 326/2/3 331/2/3
f 337/2/3 331/2/3 336/2/3
f 338/2/3 333/2/3 332/2/3
f 338/2/3 332/2/3 327/2/3
f 339/2/3 328/2/3 333/2/3
f 339/2/3 333/2/3 338/2/3
f 340/2/3 335/2/3 334/2/3
f 340/2/3 334/2/3 329/2/3
f 341/2/3 335/2/3 340/2/3
f 342/2/3 326/2/3 337/2/3
f 343/2/3 338/2/3 327/2/3
f 344/2/3 328/2/3 339/2/3
f 345/2/3 340/2/3 329/2/3
f 346/2/3 343/2/3 342/2/3
f 346/2/3 342/2/3 337/2/3
f 347/2/3 338/2/3 343/2/3
f 347/2/3 343/2/3 346/2/3
f 348/2/3 345/2/3 344/2/3
f 348/2/3 344/2/3 339/2/3
f 349/2/3 340/2/3 345/2/3
f 349/2/3 345/2/3 348/2/3
f 350/2/3 336/2/3 272/2/3
f 351/2/3 346/2/3 337/2/3
f 352/2/3 338/2/3 347/2/3
f 353/2/3 348/2/3 339/2/3
f 354/2/3 340/2/3 349/2/3
f 356/2/3 351/2/3 350/2/3
f 356/2/3 350/2/3 272/2/3
f 357/2/3 346/2/3 351/2/3
f 357/2/3 351/2/3 356/2/3
f 358/2/3 353/2/3 352/2/3
f 358/2/3 352/2/3 347/2/3
f 359/2/3 348/2/3 353/2/3
f 359/2/3 353/2/3 358/2/3
f 360/2/3 355/2/3 354/2/3
f 360/2/3 354/2/3 349/2/3
f 361/2/3 355/2/3 360/2/3
f 362/2/4 363/2/4 364/2/4
f 364/2/4 363/2/4 365/2/4
f 368/2/5 367/2/5 366/2/5
f 369/2/5 367/2/5 368/2/5
f 378/1/5 371/1/5 370/1/5
f 379/1/5 371/1/5 378/1/5
f 380/1/5 373/1/5 372/1/5
f 381/1/5 373/1/5 380/1/5
f 382/1/5 375/1/5 374/1/5
f 383/1/5 375/1/5 382/1/5
f 384/1/5 377/1/5 376/1/5
f 385/1/5 377/1/5 384/1/5
f 396/1/5 387/1/5 386/1/5
f 397/1/5 387/1/5 396/1/5
f 398/1/5 389/1/5 388/1/5
f 399/1/5 389/1/5 398/1/5
f 400/1/5 391/1/5 390/1/5
f 401/1/5 391/1/5 400/1/5
f 402/1/5 393/1/5 392/1/5
f 403/1/5 393/1/5 402/1/5
f 404/1/5 395/1/5 394/1/5
f 405/1/5 395/1/5 404/1/5
f 414/1/5 407/1/5 406/1/5
f 415/1/5 407/1/5 414/1/5
f 416/1/5 409/1/5 408/1/5
f 417/1/5 409/1/5 416/1/5
f 418/1/5 411/1/5 410/1/5
f 419/1/5 411/1/5 418/1/5
f 420/1/5 413/1/5 412/1/5
f 421/1/5 413/1/5 420/1/5
f 432/1/5 423/1/5 422/1/5
f 433/1/5 423/1/5 432/1/5
f 434/1/5 425/1/5 424/1/5
f 435/1/5 425/1/5 434/1/5
f 436/1/5 427/1/5 426/1/5
f 437/1/5 427/1/5 436/1/5
f 438/1/5 429/1/5 428/1/5
f 439/1/5 429/1/5 438/1/5
f 440/1/5 431/1/5 430/1/5
f 441/1/5 431/1/5 440/1/5
f 450/1/5 443/1/5 442/1/5
f 451/1/5 443/1/5 450/1/5
f 452/1/5 445/1/5 444/1/5
f 453/1/5 445/1/5 452/1/5
f 454/1/5 447/1/5 446/1/5
f 455/1/5 447/1/5 454/1/5
f 456/1/5 449/1/5 448/1/5
f 457/1/5 449/1/5 456/1/5
f 458/1/6 459/1/6 466/1/6
f 466/1/6 459/1/6 467/1/6
f 460/1/6 461/1/6 468/1/6
f 468/1/6 461/1/6 469/1/6
f 462/1/6 463/1/6 470/1/6
f 470/1/6 463/1/6 471/1/6
f 464/1/6 465/1/6 472/1/6
f 472/1/6 465/1/6 473/1/6
f 474/1/6 475/1/6 484/1/6
f 484/1/6 475/1/6 485/1/6
f 476/1/6 477/1/6 486/1/6
f 486/1/6 477/1/6 487/1/6
f 478/1/6 479/1/6 488/1/6
f 488/1/6 479/1/6 489/1/6
f 480/1/6 481/1/6 490/1/6
f 490/1/6 481/1/6 491/1/6
f 482/1/6 483/1/6 492/1/6
f 492/1/6 483/1/6 493/1/6
f 494/1/6 495/1/6 502/1/6
f 502/1/6 495/1/6 503/1/6
f 496/1/6 497/1/6 504/1/6
f 504/1/6 497/1/6 505/1/6
f 498/1/6 499/1/6 506/1/6
f 506/1/6 499/1/6 507/1/6
f 500/1/6 501/1/6 508/1/6
f 508/1/6 501/1/6 509/1/6
f 510/1/6 511/1/6 520/1/6
f 520/1/6 511/1/6 521/1/6
f 512/1/6 513/1/6 522/1/6
f 522/1/6 513/1/6 523/1/6
f 514/1/6 515/1/6 524/1/6
f 524/1/6 515/1/6 525/1/6
f 516/1/6 517/1/6 526/1/6
f 526/1/6 517/1/6 527/1/6
f 518/1/6 519/1/6 528/1/6
f 528/1/6 519/1/6 529/1/6
f 530/1/6 531/1/6 538/1/6
f 538/1/6 531/1/6 539/1/6
f 532/1/6 533/1/6 540/1/6
f 540/1/6 533/1/6 541/1/6
f 534/1/6 535/1/6 542/1/6
f 542/1/6 535/1/6 543/1/6
f 536/1/6 537/1/6 544/1/6
f 544/1/6 537/1/6 545/1/6
f 542/2/6 543/2/6 547/2/6
f 545/2/6 546/2/6 547/2/6
f 544/2/6 545/2/6 547/2/6
f 543/2/6 544/2/6 547/2/6
f 538/2/6 539/2/6 547/2/6
f 541/2/6 542/2/6 547/2/6
f 540/2/6 541/2/6 547/2/6
f 539/2/6 540/2/6 547/2/6
f 547/2/6 546/2/6 548/2/6
