# MagicaVoxel @ Ephtracy

# group
o 

# material
mtllib money.mtl
usemtl palette

# normals
vn -1 0 0
vn 1 0 0
vn 0 0 1
vn 0 0 -1
vn 0 -1 0
vn 0 1 0

# texcoords
vt 0.888672 0.5
vt 0.900391 0.5

# verts
v 0 2 -0.1
v 0 2 -0.2
v 0 3.1 -0.1
v 0 3.1 -0.2
v 0.2 2 -0.2
v 0.2 2 -0.3
v 0.2 2.2 -0.2
v 0.2 2.9 -0.2
v 0.2 3.1 -0.2
v 0.2 3.1 -0.3
v 1 2.2 0
v 1 2.2 -0.1
v 1 2.3 0
v 1 2.3 -0.1
v 1 2.5 0
v 1 2.5 -0.1
v 1 2.9 0
v 1 2.9 -0.1
v 1.1 2 -0.3
v 1.1 2 -0.4
v 1.1 2.1 -0.3
v 1.1 2.1 -0.4
v 1.1 3 -0.3
v 1.1 3 -0.4
v 1.1 3.1 -0.3
v 1.1 3.1 -0.4
v 1.2 2.1 0
v 1.2 2.1 -0.1
v 1.2 2.2 0
v 1.2 2.2 -0.1
v 1.2 2.3 0
v 1.2 2.3 -0.1
v 1.2 2.5 0
v 1.2 2.5 -0.1
v 1.2 2.6 0
v 1.2 2.6 -0.1
v 1.2 2.8 0
v 1.2 2.8 -0.1
v 1.2 2.9 0
v 1.2 2.9 -0.1
v 1.2 3 0
v 1.2 3 -0.1
v 1.4 2 -0.2
v 1.4 2 -0.3
v 1.4 2.1 -0.2
v 1.4 2.1 -0.3
v 1.4 2.3 0
v 1.4 2.3 -0.1
v 1.4 2.5 0
v 1.4 2.5 -0.1
v 1.4 3 -0.2
v 1.4 3 -0.3
v 1.4 3.1 -0.2
v 1.4 3.1 -0.3
v 1.1 2 -0.2
v 1.1 2 -0.3
v 1.1 2.1 -0.2
v 1.1 2.1 -0.3
v 1.1 2.6 0
v 1.1 2.6 -0.1
v 1.1 2.8 0
v 1.1 2.8 -0.1
v 1.1 3 -0.2
v 1.1 3 -0.3
v 1.1 3.1 -0.2
v 1.1 3.1 -0.3
v 1.3 2.1 0
v 1.3 2.1 -0.1
v 1.3 2.2 0
v 1.3 2.2 -0.1
v 1.3 2.3 0
v 1.3 2.3 -0.1
v 1.3 2.5 0
v 1.3 2.5 -0.1
v 1.3 2.6 0
v 1.3 2.6 -0.1
v 1.3 2.8 0
v 1.3 2.8 -0.1
v 1.3 2.9 0
v 1.3 2.9 -0.1
v 1.3 3 0
v 1.3 3 -0.1
v 1.5 2 -0.1
v 1.5 2 -0.2
v 1.5 2 -0.3
v 1.5 2 -0.4
v 1.5 2.1 -0.1
v 1.5 2.1 -0.2
v 1.5 2.1 -0.3
v 1.5 2.1 -0.4
v 1.5 2.2 0
v 1.5 2.2 -0.1
v 1.5 2.6 0
v 1.5 2.6 -0.1
v 1.5 2.8 0
v 1.5 2.8 -0.1
v 1.5 2.9 0
v 1.5 2.9 -0.1
v 1.5 3 -0.1
v 1.5 3 -0.2
v 1.5 3 -0.3
v 1.5 3 -0.4
v 1.5 3.1 -0.1
v 1.5 3.1 -0.2
v 1.5 3.1 -0.3
v 1.5 3.1 -0.4
v 1.6 2 -0.2
v 1.6 2 -0.3
v 1.6 2.1 -0.2
v 1.6 2.1 -0.3
v 1.6 3 -0.2
v 1.6 3 -0.3
v 1.6 3.1 -0.2
v 1.6 3.1 -0.3
v 1 2.2 0
v 1 2.3 0
v 1 2.5 0
v 1 2.9 0
v 1.1 2.6 0
v 1.1 2.8 0
v 1.2 2.1 0
v 1.2 2.2 0
v 1.2 2.3 0
v 1.2 2.5 0
v 1.2 2.6 0
v 1.2 2.8 0
v 1.2 2.9 0
v 1.2 3 0
v 1.3 2.1 0
v 1.3 2.2 0
v 1.3 2.3 0
v 1.3 2.5 0
v 1.3 2.6 0
v 1.3 2.8 0
v 1.3 2.9 0
v 1.3 3 0
v 1.4 2.3 0
v 1.4 2.5 0
v 1.5 2.2 0
v 1.5 2.6 0
v 1.5 2.8 0
v 1.5 2.9 0
v 0 2 -0.1
v 0 3.1 -0.1
v 0.1 2.2 -0.1
v 0.1 2.9 -0.1
v 0.2 2.1 -0.1
v 0.2 2.2 -0.1
v 0.2 2.9 -0.1
v 0.2 3 -0.1
v 1 2.2 -0.1
v 1 2.3 -0.1
v 1 2.5 -0.1
v 1 2.9 -0.1
v 1.1 2.6 -0.1
v 1.1 2.8 -0.1
v 1.2 2.1 -0.1
v 1.2 2.2 -0.1
v 1.2 2.3 -0.1
v 1.2 2.5 -0.1
v 1.2 2.6 -0.1
v 1.2 2.8 -0.1
v 1.2 2.9 -0.1
v 1.2 3 -0.1
v 1.3 2.1 -0.1
v 1.3 2.2 -0.1
v 1.3 2.3 -0.1
v 1.3 2.5 -0.1
v 1.3 2.6 -0.1
v 1.3 2.8 -0.1
v 1.3 2.9 -0.1
v 1.3 3 -0.1
v 1.4 2.3 -0.1
v 1.4 2.5 -0.1
v 1.5 2 -0.1
v 1.5 2.1 -0.1
v 1.5 2.2 -0.1
v 1.5 2.6 -0.1
v 1.5 2.8 -0.1
v 1.5 2.9 -0.1
v 1.5 3 -0.1
v 1.5 3.1 -0.1
v 1.5 2 -0.2
v 1.5 2.1 -0.2
v 1.5 3 -0.2
v 1.5 3.1 -0.2
v 1.6 2 -0.2
v 1.6 2.1 -0.2
v 1.6 3 -0.2
v 1.6 3.1 -0.2
v 1.1 2 -0.3
v 1.1 2.1 -0.3
v 1.1 3 -0.3
v 1.1 3.1 -0.3
v 1.4 2 -0.3
v 1.4 2.1 -0.3
v 1.4 3 -0.3
v 1.4 3.1 -0.3
v 0 2 -0.2
v 0 3.1 -0.2
v 0.1 2.2 -0.2
v 0.1 2.9 -0.2
v 0.2 2 -0.2
v 0.2 2.2 -0.2
v 0.2 2.9 -0.2
v 0.2 3.1 -0.2
v 1.1 2 -0.2
v 1.1 2.1 -0.2
v 1.1 3 -0.2
v 1.1 3.1 -0.2
v 1.4 2 -0.2
v 1.4 2.1 -0.2
v 1.4 3 -0.2
v 1.4 3.1 -0.2
v 0.2 2 -0.3
v 0.2 3.1 -0.3
v 0.3 2.1 -0.3
v 0.3 3 -0.3
v 1.1 2 -0.3
v 1.1 2.1 -0.3
v 1.1 3 -0.3
v 1.1 3.1 -0.3
v 1.5 2 -0.3
v 1.5 2.1 -0.3
v 1.5 3 -0.3
v 1.5 3.1 -0.3
v 1.6 2 -0.3
v 1.6 2.1 -0.3
v 1.6 3 -0.3
v 1.6 3.1 -0.3
v 1.1 2 -0.4
v 1.1 2.1 -0.4
v 1.1 3 -0.4
v 1.1 3.1 -0.4
v 1.5 2 -0.4
v 1.5 2.1 -0.4
v 1.5 3 -0.4
v 1.5 3.1 -0.4
v 0 2 -0.1
v 1.5 2 -0.1
v 0 2 -0.2
v 0.2 2 -0.2
v 1.1 2 -0.2
v 1.4 2 -0.2
v 1.5 2 -0.2
v 1.6 2 -0.2
v 0.2 2 -0.3
v 1.1 2 -0.3
v 1.4 2 -0.3
v 1.5 2 -0.3
v 1.6 2 -0.3
v 1.1 2 -0.4
v 1.5 2 -0.4
v 1.2 2.1 0
v 1.3 2.1 0
v 1.2 2.1 -0.1
v 1.3 2.1 -0.1
v 1 2.2 0
v 1.2 2.2 0
v 1.3 2.2 0
v 1.5 2.2 0
v 1 2.2 -0.1
v 1.2 2.2 -0.1
v 1.3 2.2 -0.1
v 1.5 2.2 -0.1
v 1 2.5 0
v 1.2 2.5 0
v 1.3 2.5 0
v 1.4 2.5 0
v 1 2.5 -0.1
v 1.2 2.5 -0.1
v 1.3 2.5 -0.1
v 1.4 2.5 -0.1
v 1.1 2.8 0
v 1.2 2.8 0
v 1.3 2.8 0
v 1.5 2.8 0
v 1.1 2.8 -0.1
v 1.2 2.8 -0.1
v 1.3 2.8 -0.1
v 1.5 2.8 -0.1
v 1 2.3 0
v 1.2 2.3 0
v 1.3 2.3 0
v 1.4 2.3 0
v 1 2.3 -0.1
v 1.2 2.3 -0.1
v 1.3 2.3 -0.1
v 1.4 2.3 -0.1
v 1.1 2.6 0
v 1.2 2.6 0
v 1.3 2.6 0
v 1.5 2.6 0
v 1.1 2.6 -0.1
v 1.2 2.6 -0.1
v 1.3 2.6 -0.1
v 1.5 2.6 -0.1
v 1 2.9 0
v 1.2 2.9 0
v 1.3 2.9 0
v 1.5 2.9 0
v 1 2.9 -0.1
v 1.2 2.9 -0.1
v 1.3 2.9 -0.1
v 1.5 2.9 -0.1
v 1.2 3 0
v 1.3 3 0
v 1.2 3 -0.1
v 1.3 3 -0.1
v 0 3.1 -0.1
v 1.5 3.1 -0.1
v 0 3.1 -0.2
v 0.2 3.1 -0.2
v 1.1 3.1 -0.2
v 1.4 3.1 -0.2
v 1.5 3.1 -0.2
v 1.6 3.1 -0.2
v 0.2 3.1 -0.3
v 1.1 3.1 -0.3
v 1.4 3.1 -0.3
v 1.5 3.1 -0.3
v 1.6 3.1 -0.3
v 1.1 3.1 -0.4
v 1.5 3.1 -0.4

# faces
f 3/1/1 2/1/1 1/1/1
f 4/1/1 2/1/1 3/1/1
f 7/1/1 6/1/1 5/1/1
f 8/1/1 6/1/1 7/1/1
f 9/1/1 6/1/1 8/1/1
f 10/1/1 6/1/1 9/1/1
f 13/1/1 12/1/1 11/1/1
f 14/1/1 12/1/1 13/1/1
f 17/1/1 16/1/1 15/1/1
f 18/1/1 16/1/1 17/1/1
f 21/1/1 20/1/1 19/1/1
f 22/1/1 20/1/1 21/1/1
f 23/2/1 22/2/1 21/2/1
f 24/2/1 22/2/1 23/2/1
f 25/1/1 24/1/1 23/1/1
f 26/1/1 24/1/1 25/1/1
f 29/1/1 28/1/1 27/1/1
f 30/1/1 28/1/1 29/1/1
f 33/1/1 32/1/1 31/1/1
f 34/1/1 32/1/1 33/1/1
f 37/1/1 36/1/1 35/1/1
f 38/1/1 36/1/1 37/1/1
f 41/1/1 40/1/1 39/1/1
f 42/1/1 40/1/1 41/1/1
f 45/1/1 44/1/1 43/1/1
f 46/1/1 44/1/1 45/1/1
f 49/1/1 48/1/1 47/1/1
f 50/1/1 48/1/1 49/1/1
f 51/2/1 46/2/1 45/2/1
f 52/2/1 46/2/1 51/2/1
f 53/1/1 52/1/1 51/1/1
f 54/1/1 52/1/1 53/1/1
f 55/1/2 56/1/2 57/1/2
f 57/1/2 56/1/2 58/1/2
f 59/1/2 60/1/2 61/1/2
f 61/1/2 60/1/2 62/1/2
f 57/2/2 58/2/2 63/2/2
f 63/2/2 58/2/2 64/2/2
f 63/1/2 64/1/2 65/1/2
f 65/1/2 64/1/2 66/1/2
f 67/1/2 68/1/2 69/1/2
f 69/1/2 68/1/2 70/1/2
f 71/1/2 72/1/2 73/1/2
f 73/1/2 72/1/2 74/1/2
f 75/1/2 76/1/2 77/1/2
f 77/1/2 76/1/2 78/1/2
f 79/1/2 80/1/2 81/1/2
f 81/1/2 80/1/2 82/1/2
f 83/1/2 84/1/2 87/1/2
f 87/1/2 84/1/2 88/1/2
f 85/1/2 86/1/2 89/1/2
f 89/1/2 86/1/2 90/1/2
f 87/2/2 88/2/2 92/2/2
f 91/1/2 92/1/2 93/1/2
f 92/2/2 88/2/2 94/2/2
f 93/1/2 92/1/2 94/1/2
f 94/2/2 88/2/2 96/2/2
f 95/1/2 96/1/2 97/1/2
f 96/2/2 88/2/2 98/2/2
f 97/1/2 96/1/2 98/1/2
f 98/2/2 88/2/2 99/2/2
f 99/2/2 88/2/2 100/2/2
f 89/2/2 90/2/2 101/2/2
f 101/2/2 90/2/2 102/2/2
f 99/1/2 100/1/2 103/1/2
f 103/1/2 100/1/2 104/1/2
f 101/1/2 102/1/2 105/1/2
f 105/1/2 102/1/2 106/1/2
f 107/1/2 108/1/2 109/1/2
f 109/1/2 108/1/2 110/1/2
f 109/2/2 110/2/2 111/2/2
f 111/2/2 110/2/2 112/2/2
f 111/1/2 112/1/2 113/1/2
f 113/1/2 112/1/2 114/1/2
f 119/1/3 118/1/3 117/1/3
f 120/1/3 118/1/3 119/1/3
f 122/1/3 116/1/3 115/1/3
f 123/1/3 116/1/3 122/1/3
f 124/1/3 119/1/3 117/1/3
f 125/1/3 119/1/3 124/1/3
f 126/1/3 118/1/3 120/1/3
f 127/1/3 118/1/3 126/1/3
f 129/1/3 125/1/3 124/1/3
f 129/1/3 128/1/3 127/1/3
f 129/1/3 127/1/3 126/1/3
f 129/1/3 126/1/3 125/1/3
f 129/1/3 123/1/3 122/1/3
f 129/1/3 124/1/3 123/1/3
f 129/1/3 122/1/3 121/1/3
f 130/1/3 128/1/3 129/1/3
f 131/1/3 128/1/3 130/1/3
f 132/1/3 128/1/3 131/1/3
f 133/1/3 128/1/3 132/1/3
f 134/1/3 128/1/3 133/1/3
f 135/1/3 128/1/3 134/1/3
f 136/1/3 128/1/3 135/1/3
f 137/1/3 131/1/3 130/1/3
f 138/1/3 133/1/3 132/1/3
f 139/1/3 137/1/3 130/1/3
f 139/1/3 138/1/3 137/1/3
f 140/1/3 133/1/3 138/1/3
f 140/1/3 138/1/3 139/1/3
f 141/1/3 135/1/3 134/1/3
f 142/1/3 135/1/3 141/1/3
f 145/1/3 144/1/3 143/1/3
f 146/1/3 144/1/3 145/1/3
f 147/1/3 145/1/3 143/1/3
f 148/2/3 146/2/3 145/2/3
f 148/1/3 145/1/3 147/1/3
f 149/1/3 144/1/3 146/1/3
f 149/2/3 146/2/3 148/2/3
f 150/1/3 144/1/3 149/1/3
f 151/2/3 148/2/3 147/2/3
f 151/2/3 149/2/3 148/2/3
f 151/2/3 150/2/3 149/2/3
f 152/2/3 150/2/3 151/2/3
f 153/2/3 150/2/3 152/2/3
f 154/2/3 150/2/3 153/2/3
f 157/1/3 147/1/3 143/1/3
f 157/2/3 151/2/3 147/2/3
f 158/2/3 151/2/3 157/2/3
f 159/2/3 153/2/3 152/2/3
f 160/2/3 153/2/3 159/2/3
f 161/2/3 156/2/3 155/2/3
f 162/2/3 156/2/3 161/2/3
f 163/2/3 150/2/3 154/2/3
f 164/1/3 144/1/3 150/1/3
f 164/2/3 150/2/3 163/2/3
f 165/1/3 157/1/3 143/1/3
f 172/1/3 144/1/3 164/1/3
f 173/2/3 168/2/3 167/2/3
f 174/2/3 168/2/3 173/2/3
f 175/1/3 165/1/3 143/1/3
f 176/2/3 166/2/3 165/2/3
f 176/1/3 165/1/3 175/1/3
f 177/2/3 166/2/3 176/2/3
f 178/2/3 170/2/3 169/2/3
f 179/2/3 170/2/3 178/2/3
f 180/2/3 172/2/3 171/2/3
f 181/1/3 144/1/3 172/1/3
f 181/2/3 172/2/3 180/2/3
f 182/1/3 144/1/3 181/1/3
f 187/1/3 184/1/3 183/1/3
f 188/2/3 185/2/3 184/2/3
f 188/1/3 184/1/3 187/1/3
f 189/1/3 186/1/3 185/1/3
f 189/2/3 185/2/3 188/2/3
f 190/1/3 186/1/3 189/1/3
f 195/1/3 192/1/3 191/1/3
f 196/2/3 193/2/3 192/2/3
f 196/1/3 192/1/3 195/1/3
f 197/1/3 194/1/3 193/1/3
f 197/2/3 193/2/3 196/2/3
f 198/1/3 194/1/3 197/1/3
f 199/1/4 200/1/4 201/1/4
f 201/1/4 200/1/4 202/1/4
f 199/1/4 201/1/4 203/1/4
f 201/2/4 202/2/4 204/2/4
f 203/1/4 201/1/4 204/1/4
f 202/1/4 200/1/4 205/1/4
f 204/2/4 202/2/4 205/2/4
f 205/1/4 200/1/4 206/1/4
f 207/1/4 208/1/4 211/1/4
f 208/2/4 209/2/4 212/2/4
f 211/1/4 208/1/4 212/1/4
f 209/1/4 210/1/4 213/1/4
f 212/2/4 209/2/4 213/2/4
f 213/1/4 210/1/4 214/1/4
f 215/1/4 216/1/4 217/1/4
f 217/1/4 216/1/4 218/1/4
f 215/1/4 217/1/4 219/1/4
f 217/2/4 218/2/4 220/2/4
f 219/1/4 217/1/4 220/1/4
f 218/1/4 216/1/4 221/1/4
f 220/2/4 218/2/4 221/2/4
f 221/1/4 216/1/4 222/1/4
f 223/1/4 224/1/4 227/1/4
f 224/2/4 225/2/4 228/2/4
f 227/1/4 224/1/4 228/1/4
f 225/1/4 226/1/4 229/1/4
f 228/2/4 225/2/4 229/2/4
f 229/1/4 226/1/4 230/1/4
f 231/1/4 232/1/4 235/1/4
f 232/2/4 233/2/4 236/2/4
f 235/1/4 232/1/4 236/1/4
f 233/1/4 234/1/4 237/1/4
f 236/2/4 233/2/4 237/2/4
f 237/1/4 234/1/4 238/1/4
f 241/1/5 240/1/5 239/1/5
f 242/1/5 240/1/5 241/1/5
f 243/1/5 240/1/5 242/1/5
f 244/1/5 240/1/5 243/1/5
f 245/1/5 240/1/5 244/1/5
f 247/1/5 243/1/5 242/1/5
f 248/1/5 243/1/5 247/1/5
f 249/1/5 246/1/5 245/1/5
f 249/1/5 245/1/5 244/1/5
f 250/1/5 246/1/5 249/1/5
f 251/1/5 246/1/5 250/1/5
f 252/1/5 249/1/5 248/1/5
f 252/1/5 250/1/5 249/1/5
f 253/1/5 250/1/5 252/1/5
f 256/1/5 255/1/5 254/1/5
f 257/1/5 255/1/5 256/1/5
f 262/1/5 259/1/5 258/1/5
f 263/1/5 259/1/5 262/1/5
f 264/1/5 261/1/5 260/1/5
f 265/1/5 261/1/5 264/1/5
f 270/1/5 267/1/5 266/1/5
f 271/1/5 267/1/5 270/1/5
f 272/1/5 269/1/5 268/1/5
f 273/1/5 269/1/5 272/1/5
f 278/1/5 275/1/5 274/1/5
f 279/1/5 275/1/5 278/1/5
f 280/1/5 277/1/5 276/1/5
f 281/1/5 277/1/5 280/1/5
f 282/1/6 283/1/6 286/1/6
f 286/1/6 283/1/6 287/1/6
f 284/1/6 285/1/6 288/1/6
f 288/1/6 285/1/6 289/1/6
f 290/1/6 291/1/6 294/1/6
f 294/1/6 291/1/6 295/1/6
f 292/1/6 293/1/6 296/1/6
f 296/1/6 293/1/6 297/1/6
f 298/1/6 299/1/6 302/1/6
f 302/1/6 299/1/6 303/1/6
f 300/1/6 301/1/6 304/1/6
f 304/1/6 301/1/6 305/1/6
f 306/1/6 307/1/6 308/1/6
f 308/1/6 307/1/6 309/1/6
f 310/1/6 311/1/6 312/1/6
f 312/1/6 311/1/6 313/1/6
f 313/1/6 311/1/6 314/1/6
f 314/1/6 311/1/6 315/1/6
f 315/1/6 311/1/6 316/1/6
f 313/1/6 314/1/6 318/1/6
f 318/1/6 314/1/6 319/1/6
f 316/1/6 317/1/6 320/1/6
f 315/1/6 316/1/6 320/1/6
f 320/1/6 317/1/6 321/1/6
f 321/1/6 317/1/6 322/1/6
f 319/1/6 320/1/6 323/1/6
f 320/1/6 321/1/6 323/1/6
f 323/1/6 321/1/6 324/1/6
